PathFileType  4	(X/Y/Z) C:\Users\antoi\Documents\MyRepositories\mobilecap\ResultsAnalysis
DataRate	CameraRate	NumFrames	NumMarkers	Units	OrigDataRate	OrigDataStartFrame	OrigNumFrames
100.0	100.0	7	51	mm	100.0	143	1139
Frame#	Time	r_knee			r_shank_antsup			r_ankle			r_calc			r_5meta			r_toe			L_knee			L_shank_antsup			L_ankle			L_calc			L_5meta			L_toe			r_sh2			r_sh3			r_sh4			L_sh2			L_sh3			r_thigh1			r_thigh2			r_thigh3			r_thigh4			r_thigh5			L_thigh1			L_thigh2			L_thigh3			L_thigh4			r.ASIS			r.PSIS			L.ASIS			L.PSIS			C7			R_Shoulder			L_Shoulder			R_Sternum			L_Sternum			R_humerus			R_elbow_med			R_elbow_lat			R_forearm			R_wrist_radius			R_wrist_ulna			L_humerus			L_elbow_med			L_elbow_lat			L_forearm			L_wrist_radius			L_wrist_ulna			R_HJC			L_HJC			R_HJC_reg			L_HJC_reg			
		X1	Y1	Z1	X2	Y2	Z2	X3	Y3	Z3	X4	Y4	Z4	X5	Y5	Z5	X6	Y6	Z6	X7	Y7	Z7	X8	Y8	Z8	X9	Y9	Z9	X10	Y10	Z10	X11	Y11	Z11	X12	Y12	Z12	X13	Y13	Z13	X14	Y14	Z14	X15	Y15	Z15	X16	Y16	Z16	X17	Y17	Z17	X18	Y18	Z18	X19	Y19	Z19	X20	Y20	Z20	X21	Y21	Z21	X22	Y22	Z22	X23	Y23	Z23	X24	Y24	Z24	X25	Y25	Z25	X26	Y26	Z26	X27	Y27	Z27	X28	Y28	Z28	X29	Y29	Z29	X30	Y30	Z30	X31	Y31	Z31	X32	Y32	Z32	X33	Y33	Z33	X34	Y34	Z34	X35	Y35	Z35	X36	Y36	Z36	X37	Y37	Z37	X38	Y38	Z38	X39	Y39	Z39	X40	Y40	Z40	X41	Y41	Z41	X42	Y42	Z42	X43	Y43	Z43	X44	Y44	Z44	X45	Y45	Z45	X46	Y46	Z46	X47	Y47	Z47	X48	Y48	Z48	X49	Y49	Z49	X50	Y50	Z50	X51	Y51	Z51	

143	1.42000000	-216.36290	599.48697	-362.47267	-188.51772	454.35629	-343.61839	-308.57279	106.33398	-310.83543	-363.38839	71.36731	-371.23328	-176.90518	45.75492	-268.29413	-136.39880	77.23773	-314.34888	-220.38225	591.60679	-902.58060	-182.87745	392.59930	-907.40038	-320.43245	113.87710	-935.34139	-379.84884	71.86004	-878.70010	-184.09746	40.91017	-980.03903	-140.66967	74.14158	-924.14146	-210.27791	342.42158	-337.11256	-256.97155	467.04298	-315.78833	-280.86181	358.60199	-297.60567	-250.94290	420.79965	-956.15706	-284.36544	306.32113	-952.52232	-378.91585	840.80311	-397.16335	-296.89350	769.66612	-375.74076	-322.59659	705.64893	-364.05711	-451.98969	754.06339	-418.62015	-364.55637	677.62183	-388.96450	-351.99969	855.05471	-856.25025	-262.01235	754.99018	-877.63551	-438.07344	787.93692	-869.85268	-345.94956	689.05395	-902.27761	-426.60049	1004.99326	-499.91723	-591.25832	1076.99011	-591.48140	-425.05720	993.86646	-767.39669	-587.92877	1077.41649	-683.36649	-337.95040	1493.44898	-650.51985	-275.64730	1444.91328	-482.34813	-284.57732	1456.19228	-814.97383	-222.66135	1382.14422	-622.42676	-220.60015	1380.15646	-670.48898	-310.34496	1204.90643	-370.36269	-410.34943	1081.75418	-371.46511	-378.69220	1119.66978	-297.54108	-186.57169	1100.12655	-386.57282	-107.31039	1096.97572	-431.59082	-107.79090	1066.52642	-408.77953	-292.17528	1183.14737	-899.62029	-395.87363	1095.84987	-891.97029	-339.87019	1106.50567	-957.47142	-163.37886	1089.62850	-852.80369	-105.35875	1094.00676	-803.04767	-106.34211	1065.09576	-822.76765	-523.33540	930.71555	-533.77781	-525.69814	928.36916	-731.22588	-514.14717	936.04299	-541.44455	-507.74880	936.86323	-718.01817	
144	1.43000000	-215.29268	598.20354	-361.97328	-187.17867	453.45769	-342.84204	-308.50662	106.20872	-310.85275	-363.30532	71.36230	-371.11642	-176.91955	45.57569	-268.00781	-136.43956	77.08812	-314.12760	-218.48998	590.35464	-903.18062	-181.04785	391.57354	-908.24503	-320.32281	113.63319	-935.30514	-379.81753	71.79970	-878.75823	-184.05961	40.60160	-980.26902	-140.65234	73.80930	-924.35359	-209.36569	341.54558	-336.59949	-255.81685	466.34202	-315.47057	-280.22260	358.02331	-297.48109	-249.15768	420.13385	-956.63639	-283.24955	305.88206	-953.06215	-383.69947	835.09190	-396.82980	-299.71675	766.85339	-375.27970	-323.38194	701.99637	-363.24460	-454.27358	745.72251	-417.40267	-364.58999	672.81023	-387.61618	-357.91591	849.72898	-856.12635	-264.68231	752.83336	-878.19664	-441.74508	779.90165	-869.95334	-346.42764	684.32862	-903.27666	-433.80615	991.61814	-499.32750	-596.94577	1065.43937	-592.02934	-431.64230	979.45155	-767.06136	-593.48574	1065.40635	-683.52699	-336.84052	1477.15292	-651.26273	-274.68072	1428.53050	-483.30365	-282.91434	1438.92016	-814.81165	-222.94226	1364.32836	-622.70552	-220.45436	1362.29045	-670.74594	-305.91692	1188.88177	-370.49846	-403.93222	1064.25765	-369.63464	-372.43803	1103.14717	-296.21977	-180.91126	1088.43059	-387.69057	-102.21505	1087.31257	-433.62333	-101.67342	1056.88717	-410.70008	-285.81061	1166.34433	-899.42283	-387.95682	1077.16724	-893.77892	-331.26211	1088.93467	-958.10572	-155.80989	1077.22062	-851.12602	-98.77657	1083.40513	-800.64992	-98.78092	1054.24191	-819.95782	-531.35119	918.49710	-533.35403	-533.17566	915.41385	-730.79792	-522.08583	923.74414	-540.73618	-515.40218	923.67773	-717.50211	
145	1.44000000	-214.29090	596.89267	-361.22821	-185.75442	452.60616	-341.97135	-308.24274	106.09586	-310.67825	-363.16517	71.28788	-371.00598	-176.95362	45.25958	-267.80118	-136.45015	76.93445	-313.96370	-216.84316	588.83770	-903.58387	-179.13588	390.43254	-908.95084	-319.97380	113.34071	-935.29297	-379.68089	71.74927	-878.76919	-183.77092	40.25871	-980.79100	-140.38741	73.17016	-924.50773	-208.08606	341.10915	-335.66700	-254.51930	465.53717	-315.13106	-279.49260	357.55617	-297.31665	-247.28280	419.38778	-957.03437	-281.90214	305.17793	-953.43104	-388.80162	829.11961	-396.34468	-302.54948	763.62226	-374.50240	-324.52876	698.09495	-362.19054	-456.75311	737.31193	-415.96774	-364.92111	667.57381	-386.35533	-363.94989	843.83439	-856.19718	-267.76263	750.07539	-878.87033	-445.54960	771.34092	-869.74076	-347.36886	679.06152	-903.74063	-440.42337	978.11694	-498.85600	-602.65241	1053.28687	-592.60878	-438.06718	964.80112	-766.93154	-599.15714	1052.80461	-683.74116	-336.11085	1460.47847	-651.93288	-274.00503	1411.83524	-484.28982	-281.68406	1421.43077	-814.84605	-223.54999	1346.19762	-622.95849	-220.65338	1344.12982	-671.17730	-301.74821	1172.53819	-370.76942	-397.19137	1046.55959	-367.93711	-365.83500	1086.32285	-295.11594	-175.26587	1076.54117	-388.75000	-97.30618	1077.49067	-435.65914	-95.61935	1047.27845	-412.67816	-279.48472	1149.39390	-899.30061	-380.14935	1057.48549	-896.03286	-322.62474	1071.17850	-958.64911	-148.35351	1064.75909	-849.30918	-92.41276	1072.67088	-798.06171	-91.36148	1043.41468	-817.28127	-538.73842	905.90647	-532.96341	-540.29806	901.97910	-730.39472	-529.39003	910.96067	-540.07946	-522.60163	910.02280	-717.10191	
146	1.45000000	-213.23895	595.55831	-360.42109	-184.17288	451.81765	-340.89978	-307.84532	106.00223	-310.36904	-362.99773	71.20276	-370.87318	-176.96582	44.87303	-267.62856	-136.38889	76.71334	-313.75281	-215.24797	587.12583	-903.69761	-177.15520	389.24113	-909.29533	-319.50197	113.14453	-935.34248	-379.48092	71.67109	-878.63103	-183.48821	39.73308	-980.93960	-140.06900	72.53120	-924.65842	-206.65452	340.93726	-334.39356	-253.02717	464.80014	-314.55695	-278.39996	356.91077	-297.03492	-245.22396	418.63872	-957.51133	-280.31926	304.50069	-953.52194	-394.07511	822.81664	-395.58507	-305.20590	759.20203	-373.66531	-325.94788	693.68501	-361.22637	-459.40707	728.92391	-414.68704	-365.60010	662.04558	-385.19195	-370.10053	837.28852	-856.27945	-271.08577	746.73602	-879.55684	-449.39356	762.22648	-869.35413	-348.49366	673.12596	-903.54051	-446.67945	964.36949	-498.23572	-608.49881	1040.54563	-592.93693	-444.34422	950.18634	-766.51946	-604.88290	1039.73844	-684.05434	-335.81990	1443.55879	-652.62265	-273.73635	1394.71873	-485.24133	-280.93561	1403.77854	-815.07602	-224.38779	1328.09950	-623.36042	-221.57393	1325.53941	-671.74502	-297.75476	1156.18851	-370.90092	-390.05953	1029.01777	-366.09283	-359.02227	1069.42950	-294.05975	-169.70005	1064.54856	-389.78972	-92.58142	1067.55768	-437.59153	-89.64213	1037.55754	-414.63859	-273.29663	1132.22027	-899.11715	-372.40921	1037.02854	-898.18670	-313.97555	1053.25074	-959.04328	-141.11206	1052.11874	-847.24676	-86.24340	1061.81831	-795.36229	-84.09206	1032.64139	-814.65960	-545.73300	892.89229	-532.50209	-547.02137	888.24234	-729.91968	-536.29495	897.69161	-539.41297	-529.26476	896.12383	-716.58745	
147	1.46000000	-212.09286	594.21318	-359.52779	-182.46873	451.05855	-339.60319	-307.46071	105.86082	-310.13519	-362.84223	71.19224	-370.77199	-176.91313	44.51745	-267.43041	-136.25707	76.39769	-313.50866	-213.55045	585.38556	-903.51750	-175.15706	388.08524	-909.24506	-318.99865	113.01602	-935.37799	-379.25175	71.54837	-878.40074	-183.28678	39.15712	-980.77549	-139.88097	71.93923	-924.72043	-205.33734	340.52914	-333.24494	-251.42171	464.20421	-313.64121	-277.10868	356.20933	-296.49459	-243.05501	417.92215	-957.84425	-278.71237	303.99207	-953.45373	-399.35808	815.96535	-394.57462	-308.02440	753.76798	-372.99762	-327.54623	688.75735	-360.59984	-462.05110	720.30743	-413.84884	-366.36074	656.25347	-384.34877	-376.24607	830.24596	-856.31400	-274.44155	743.01613	-880.09142	-453.11587	752.69927	-868.82197	-349.51867	666.73773	-903.05874	-452.81137	950.34361	-497.36617	-614.38294	1027.34799	-593.04404	-450.32599	935.57995	-765.72171	-610.56740	1026.33699	-684.32824	-335.96445	1426.57307	-653.40281	-273.98117	1377.42094	-486.30220	-280.60418	1385.94351	-815.23243	-225.47834	1310.04208	-623.81940	-223.18526	1306.63470	-672.22960	-293.78368	1140.00650	-370.63691	-382.81416	1011.12798	-364.25460	-352.38406	1052.72874	-292.62160	-164.34339	1052.56378	-390.76422	-87.98392	1057.58692	-439.43461	-83.85593	1027.61160	-416.49176	-267.27724	1115.01860	-898.82725	-364.50519	1016.93959	-899.53028	-305.30120	1035.27559	-959.36395	-134.14819	1039.30185	-845.13468	-80.22808	1050.96429	-792.70886	-76.99576	1021.89045	-811.90766	-552.52454	879.49552	-531.92999	-553.34676	874.28840	-729.33584	-542.93559	884.03943	-538.62626	-535.52784	882.07686	-715.85060	
148	1.47000000	-210.91862	592.91970	-358.42388	-180.73126	450.29786	-338.30515	-307.12955	105.68413	-309.99502	-362.69973	71.22024	-370.68564	-176.81410	44.25403	-267.18910	-136.09518	76.07606	-313.28722	-211.77043	583.68486	-903.03236	-173.15528	387.07084	-908.98306	-318.47991	112.87963	-935.21745	-378.99134	71.45725	-878.18620	-183.04048	38.99077	-980.96703	-139.71352	71.34038	-924.53023	-204.07207	339.86697	-332.38776	-249.72039	463.69354	-312.44134	-275.89099	355.60862	-295.80042	-240.87258	417.28653	-957.71300	-277.17737	303.59975	-953.36226	-404.67822	808.72908	-393.42794	-311.46324	748.48962	-372.08683	-329.31828	683.58869	-360.05188	-464.60358	711.43929	-413.36361	-366.90901	649.82892	-384.17645	-382.17450	822.95493	-856.33817	-277.69320	739.06974	-880.46142	-456.60071	742.90047	-868.02741	-350.38096	660.22973	-902.59057	-458.61794	936.33994	-496.54405	-620.10916	1013.84242	-593.22657	-456.02298	921.01809	-764.93998	-616.19141	1012.71960	-684.47633	-336.45569	1409.68175	-654.17957	-274.66182	1360.45512	-487.57183	-280.61578	1368.07702	-815.22192	-227.05615	1291.66973	-624.07726	-224.97460	1287.87387	-672.52046	-289.85480	1123.96893	-370.16927	-375.97733	992.25617	-362.77727	-345.93258	1036.17217	-291.05778	-159.17505	1040.67812	-391.67835	-83.42923	1047.69282	-441.31730	-78.26050	1017.71529	-418.27245	-261.40947	1098.10372	-898.52252	-356.32792	997.60431	-900.18438	-296.69190	1017.43493	-959.59266	-127.47732	1026.54911	-843.12557	-74.44502	1040.19815	-790.10897	-70.14710	1011.17160	-809.03088	-558.86968	865.93412	-531.37048	-559.28165	860.19312	-728.76303	-549.04669	870.14186	-537.84449	-541.43558	867.95986	-715.10631	
149	1.48000000	-209.78230	591.70015	-357.29441	-179.03337	449.52077	-337.20437	-306.76312	105.66111	-309.63337	-362.54323	71.22735	-370.55162	-176.69537	44.04522	-266.92574	-135.95209	75.83009	-313.04002	-209.97155	581.98758	-902.11933	-171.14412	386.16551	-908.49261	-317.95493	112.74179	-934.79957	-378.69750	71.45975	-877.99664	-182.75176	39.24006	-981.44997	-139.42213	70.82630	-924.15420	-202.73783	339.16344	-331.64384	-247.93447	463.16443	-311.13043	-274.74695	355.06221	-295.12774	-238.65745	416.75619	-957.12149	-275.59661	303.22912	-953.11992	-410.04970	801.50223	-392.16711	-315.48862	743.87998	-370.71626	-331.21128	678.34979	-359.35684	-467.04242	702.43014	-413.09175	-367.30904	642.86456	-384.38333	-387.81793	815.56511	-856.19293	-280.76379	735.01245	-880.56351	-459.74737	733.01026	-867.06737	-351.01376	653.80159	-902.04219	-463.90797	922.47796	-496.12504	-625.63822	1000.06650	-593.45091	-461.61019	906.79605	-764.64336	-621.77026	998.97889	-684.52159	-337.25038	1392.91390	-654.87663	-275.60380	1343.96764	-488.86579	-281.01281	1350.42353	-815.16844	-229.16717	1273.08796	-624.11639	-226.76715	1269.45537	-672.66399	-286.04862	1108.12295	-369.78729	-369.77978	973.29118	-361.35121	-339.36416	1019.69939	-289.86539	-154.06983	1028.96069	-392.66625	-78.98156	1037.90607	-443.25676	-72.79006	1008.10440	-420.06156	-255.76365	1081.56742	-898.23853	-348.07522	978.57017	-900.60988	-288.28638	999.95537	-959.64308	-121.00142	1014.09337	-841.05519	-68.99221	1029.55266	-787.56466	-63.55739	1000.61391	-806.28872	-564.51641	852.24159	-531.07900	-564.89269	846.15417	-728.46150	-554.50293	856.03314	-537.42191	-546.97035	853.91544	-714.78033	
